<svg xmlns="http://www.w3.org/2000/svg" viewBox="0 -0.5 320 320" shape-rendering="crispEdges">
<metadata>Made with Pixels to Svg https://codepen.io/shshaw/pen/XbxvNj</metadata>
<path stroke="#ff6600" d="M140 50h10M140 51h10M140 52h10M140 53h10M140 54h10M140 55h10M140 56h10M140 57h10M140 58h10M140 59h10M140 60h20M140 61h20M140 62h20M140 63h20M140 64h20M140 65h20M140 66h20M140 67h20M140 68h20M140 69h20M130 70h10M150 70h20M130 71h10M150 71h20M130 72h10M150 72h20M130 73h10M150 73h20M130 74h10M150 74h20M130 75h10M150 75h20M130 76h10M150 76h20M130 77h10M150 77h20M130 78h10M150 78h20M130 79h10M150 79h20M130 80h10M170 80h10M130 81h10M170 81h10M130 82h10M170 82h10M130 83h10M170 83h10M130 84h10M170 84h10M130 85h10M170 85h10M130 86h10M170 86h10M130 87h10M170 87h10M130 88h10M170 88h10M130 89h10M170 89h10M120 90h10M180 90h10M120 91h10M180 91h10M120 92h10M180 92h10M120 93h10M180 93h10M120 94h10M180 94h10M120 95h10M180 95h10M120 96h10M180 96h10M120 97h10M180 97h10M120 98h10M180 98h10M120 99h1M122 99h8M180 99h10M120 100h10M190 100h10M120 101h10M190 101h10M120 102h10M190 102h10M120 103h10M190 103h10M120 104h10M190 104h10M120 105h10M190 105h10M120 106h10M190 106h10M120 107h10M190 107h10M120 108h10M190 108h10M120 109h10M190 109h10M110 110h10M200 110h10M110 111h10M200 111h10M110 112h10M200 112h10M110 113h10M200 113h10M110 114h10M200 114h7M208 114h2M110 115h10M200 115h10M110 116h10M200 116h10M110 117h10M200 117h10M110 118h10M200 118h10M110 119h10M200 119h10M100 120h10M210 120h10M100 121h10M210 121h10M100 122h10M210 122h10M100 123h10M210 123h10M100 124h10M210 124h10M100 125h10M210 125h10M100 126h10M210 126h10M100 127h10M210 127h10M100 128h10M210 128h10M100 129h10M210 129h10M100 130h10M100 131h10M100 132h10M100 133h10M100 134h10M100 135h10M100 136h10M100 137h10M100 138h10M100 139h10" />
<path stroke="#ff9500" d="M140 70h10M140 71h10M140 72h10M140 73h10M140 74h10M140 75h10M140 76h10M140 77h10M140 78h10M140 79h10M140 80h30M140 81h30M140 82h30M140 83h30M140 84h30M140 85h30M140 86h30M140 87h30M140 88h30M140 89h30M130 90h50M130 91h50M130 92h50M130 93h50M130 94h50M130 95h50M130 96h50M130 97h50M130 98h50M130 99h50M130 100h20M160 100h30M130 101h20M160 101h30M130 102h20M160 102h30M130 103h20M160 103h30M130 104h20M160 104h30M130 105h20M160 105h30M130 106h20M160 106h4M165 106h25M130 107h20M160 107h30M130 108h20M160 108h30M130 109h20M160 109h30M120 110h20M170 110h30M120 111h20M170 111h30M120 112h20M170 112h30M120 113h20M170 113h30M120 114h20M170 114h15M186 114h14M120 115h20M170 115h30M120 116h20M170 116h30M120 117h20M170 117h30M120 118h20M170 118h30M120 119h20M170 119h30M110 120h30M180 120h30M110 121h30M180 121h30M110 122h30M180 122h28M209 122h1M110 123h30M180 123h4M185 123h25M110 124h30M180 124h30M110 125h30M180 125h30M110 126h30M180 126h30M110 127h30M180 127h30M110 128h30M180 128h30M110 129h30M180 129h30M110 130h20M180 130h40M110 131h20M180 131h40M110 132h20M180 132h40M110 133h20M180 133h40M110 134h5M116 134h14M180 134h40M110 135h20M180 135h40M110 136h20M180 136h40M110 137h20M180 137h40M110 138h20M180 138h40M110 139h20M180 139h40M100 140h30M180 140h40M100 141h3M104 141h26M180 141h40M100 142h30M180 142h40M100 143h30M180 143h40M100 144h30M180 144h40M101 145h29M180 145h40M100 146h30M180 146h40M100 147h30M180 147h40M100 148h30M180 148h40M100 149h30M180 149h40M110 150h30M170 150h40M110 151h30M170 151h40M110 152h30M170 152h40M110 153h30M170 153h40M110 154h30M170 154h40M110 155h30M170 155h40M110 156h30M170 156h4M175 156h35M110 157h30M170 157h40M110 158h30M170 158h40M110 159h30M170 159h40" />
<path stroke="#ff6601" d="M121 99h1" />
<path stroke="#ffc107" d="M150 100h10M150 101h10M150 102h10M150 103h10M150 104h10M150 105h10M150 106h10M150 107h10M150 108h10M150 109h10M140 110h30M140 111h30M140 112h30M140 113h30M140 114h30M140 115h30M140 116h30M140 117h30M140 118h30M140 119h30M140 120h40M140 121h40M140 122h40M140 123h40M140 124h40M140 125h40M140 126h40M140 127h40M140 128h40M141 129h39M130 130h50M130 131h50M131 132h41M173 132h7M130 133h50M130 134h50M130 135h50M130 136h50M130 137h50M130 138h50M130 139h50M130 140h50M130 141h50M130 142h50M130 143h50M130 144h50M130 145h50M130 146h50M130 147h50M130 148h50M130 149h50M140 150h30M140 151h30M140 152h30M140 153h30M140 154h30M140 155h30M140 156h30M140 157h19M160 157h10M140 158h30M140 159h30" />
<path stroke="#fe9500" d="M164 106h1M208 122h1M115 134h1M100 145h1" />
<path stroke="#ff9400" d="M185 114h1M184 123h1M103 141h1" />
<path stroke="#fe6600" d="M207 114h1" />
<path stroke="#fec107" d="M140 129h1M130 132h1" />
<path stroke="#ffc007" d="M172 132h1" />
<path stroke="#ff9501" d="M174 156h1" />
<path stroke="#ffc106" d="M159 157h1" />
<path stroke="#3e2723" d="M110 160h10M200 160h10M110 161h10M200 161h10M110 162h10M200 162h10M110 163h10M200 163h10M110 164h10M200 164h10M110 165h10M200 165h10M110 166h10M200 166h10M110 167h10M200 167h10M110 168h10M200 168h10M110 169h10M200 169h10M110 170h10M200 170h10M110 171h10M200 171h10M110 172h10M200 172h10M110 173h10M200 173h10M110 174h10M200 174h10M110 175h10M200 175h10M110 176h10M200 176h10M110 177h10M200 177h10M110 178h10M200 178h10M110 179h10M200 179h10M120 180h10M190 180h10M120 181h10M190 181h10M120 182h10M190 182h10M120 183h10M190 183h10M120 184h10M190 184h10M120 185h10M190 185h10M120 186h10M190 186h10M120 187h10M190 187h10M120 188h10M190 188h10M120 189h10M190 189h10M120 190h10M190 190h10M120 191h10M190 191h10M120 192h10M190 192h10M120 193h10M190 193h10M120 194h10M190 194h10M120 195h10M190 195h10M120 196h10M190 196h10M120 197h10M190 197h10M120 198h10M190 198h10M120 199h10M190 199h10M120 200h10M190 200h10M120 201h10M190 201h10M120 202h10M190 202h10M120 203h10M190 203h10M120 204h10M190 204h10M120 205h10M190 205h10M120 206h10M190 206h10M120 207h10M190 207h10M120 208h10M190 208h10M120 209h10M190 209h10M130 230h10M180 230h10M130 231h10M180 231h10M130 232h10M180 232h10M130 233h10M180 233h10M130 234h10M180 234h10M130 235h10M180 235h10M130 236h10M180 236h10M130 237h10M180 237h10M130 238h10M180 238h10M130 239h10M180 239h10M130 240h10M180 240h10M130 241h10M180 241h10M130 242h10M180 242h10M130 243h10M180 243h10M130 244h10M180 244h10M130 245h10M180 245h10M130 246h10M180 246h10M130 247h10M180 247h10M130 248h10M180 248h10M130 249h10M180 249h10M130 250h10M180 250h10M130 251h10M180 251h10M130 252h10M180 252h10M130 253h10M180 253h10M130 254h10M180 254h10M130 255h10M180 255h10M130 256h10M180 256h10M130 257h10M180 257h10M130 258h10M180 258h10M130 259h10M180 259h10M140 260h10M170 260h10M140 261h10M170 261h10M140 262h10M170 262h10M140 263h10M170 263h10M140 264h10M170 264h10M140 265h10M170 265h10M140 266h10M170 266h10M140 267h10M170 267h9M140 268h10M170 268h10M140 269h10M170 269h10M140 270h10M170 270h10M140 271h10M170 271h10M140 272h10M170 272h10M140 273h10M170 273h10M140 274h10M170 274h10M140 275h10M170 275h10M140 276h10M170 276h10M140 277h10M170 277h10M140 278h10M170 278h10M140 279h10M170 279h10M140 280h10M170 280h10M140 281h10M170 281h10M140 282h10M170 282h10M140 283h10M170 283h10M140 284h10M170 284h10M140 285h10M170 285h10M140 286h10M170 286h10M140 287h10M170 287h10M140 288h10M171 288h9M140 289h10M170 289h10M150 290h20M150 291h20M150 292h20M150 293h20M150 294h20M150 295h20M150 296h20M150 297h20M150 298h9M160 298h10M150 299h20" />
<path stroke="#795548" d="M120 160h80M120 161h80M120 162h80M120 163h80M120 164h80M120 165h80M120 166h1M122 166h67M190 166h10M120 167h80M120 168h80M120 169h80M120 170h80M120 171h80M120 172h80M120 173h80M120 174h80M120 175h80M120 176h29M150 176h50M120 177h80M120 178h80M120 179h22M143 179h57" />
<path stroke="#795448" d="M121 166h1M189 166h1M149 176h1M142 179h1" />
<path stroke="#6d4c41" d="M130 180h4M135 180h55M130 181h60M130 182h60M130 183h60M130 184h60M130 185h60M130 186h60M130 187h60M130 188h60M130 189h60M130 190h13M144 190h46M130 191h60M130 192h60M130 193h8M139 193h6M146 193h44M130 194h60M130 195h60M130 196h60M130 197h60M130 198h60M130 199h60M130 200h60M130 201h60M130 202h31M162 202h28M130 203h60M130 204h60M130 205h50M181 205h9M130 206h60M130 207h60M130 208h60M130 209h60" />
<path stroke="#6d4d41" d="M134 180h1M161 202h1" />
<path stroke="#6d4c40" d="M143 190h1M138 193h1M180 205h1" />
<path stroke="#6c4c41" d="M145 193h1" />
<path stroke="#595652" d="M100 210h20M200 210h20M100 211h20M200 211h20M100 212h20M200 212h20M100 213h20M200 213h20M100 214h20M200 214h20M100 215h20M200 215h20M100 216h20M200 216h20M100 217h3M104 217h16M200 217h20M100 218h5M106 218h14M200 218h20M100 219h20M200 219h20M100 220h20M200 220h20M100 221h4M105 221h15M200 221h20M100 222h20M200 222h2M203 222h17M100 223h20M200 223h20M100 224h20M200 224h20M100 225h20M200 225h20M100 226h20M200 226h20M100 227h20M200 227h20M100 228h20M200 228h20M100 229h20M200 229h20" />
<path stroke="#696a6a" d="M120 210h80M120 211h80M120 212h45M166 212h34M120 213h80M120 214h80M120 215h80M120 216h34M155 216h45M120 217h80M120 218h80M120 219h56M177 219h23M120 220h80M120 221h80M120 222h80M120 223h80M120 224h42M163 224h37M120 225h80M120 226h46M167 226h33M120 227h22M143 227h57M120 228h80M120 229h80" />
<path stroke="#696b6a" d="M165 212h1M162 224h1" />
<path stroke="#696a6b" d="M154 216h1M166 226h1M142 227h1" />
<path stroke="#595752" d="M103 217h1" />
<path stroke="#585652" d="M105 218h1M104 221h1" />
<path stroke="#686a6a" d="M176 219h1" />
<path stroke="#595653" d="M202 222h1" />
<path stroke="#5d4037" d="M140 230h40M140 231h40M140 232h40M140 233h40M140 234h40M140 235h40M140 236h40M140 237h40M140 238h40M140 239h40M140 240h40M140 241h40M140 242h40M140 243h12M153 243h27M140 244h40M140 245h40M140 246h40M140 247h40M140 248h40M140 249h40M140 250h40M140 251h40M140 252h40M140 253h16M157 253h23M140 254h40M140 255h20M161 255h19M140 256h40M140 257h35M176 257h4M140 258h40M140 259h40" />
<path stroke="#5c4037" d="M152 243h1" />
<path stroke="#5d4036" d="M156 253h1M175 257h1" />
<path stroke="#5d4137" d="M160 255h1" />
<path stroke="#4e342e" d="M150 260h20M150 261h20M150 262h20M150 263h20M150 264h20M150 265h20M150 266h20M150 267h20M150 268h20M150 269h20M150 270h20M150 271h20M150 272h20M150 273h20M150 274h20M150 275h20M150 276h20M150 277h20M150 278h20M150 279h20M150 280h20M150 281h20M150 282h20M150 283h20M150 284h20M150 285h20M150 286h20M150 287h20M150 288h20M150 289h20" />
<path stroke="#3f2723" d="M179 267h1M170 288h1" />
<path stroke="#3e2623" d="M159 298h1" />
</svg>